<!-- <svg xmlns="http://www.w3.org/2000/svg" fill="none" viewBox="0 0 128 128">
    <path d="M50.4 78.5a75.1 75.1 0 0 0-28.5 6.9l24.2-65.7c.7-2 1.9-3.2 3.4-3.2h29c1.5 0 2.7 1.2 3.4 3.2l24.2 65.7s-11.6-7-28.5-7L67 45.5c-.4-1.7-1.6-2.8-2.9-2.8-1.3 0-2.5 1.1-2.9 2.7L50.4 78.5Zm-1.1 28.2Zm-4.2-20.2c-2 6.6-.6 15.8 4.2 20.2a17.5 17.5 0 0 1 .2-.7 5.5 5.5 0 0 1 5.7-4.5c2.8.1 4.3 1.5 4.7 4.7.2 1.1.2 2.3.2 3.5v.4c0 2.7.7 5.2 2.2 7.4a13 13 0 0 0 5.7 4.9v-.3l-.2-.3c-1.8-5.6-.5-9.5 4.4-12.8l1.5-1a73 73 0 0 0 3.2-2.2 16 16 0 0 0 6.8-11.4c.3-2 .1-4-.6-6l-.8.6-1.6 1a37 37 0 0 1-22.4 2.7c-5-.7-9.7-2-13.2-6.2Z" />
    <style>
        path { fill: #000; }
        @media (prefers-color-scheme: dark) {
            path { fill: #FFF; }
        }
    </style>
</svg> -->
<svg xmlns="http://www.w3.org/2000/svg" width="32" height="32" fill="#000000" viewBox="0 0 256 256">
<path d="M103.77,185.94C103.38,187.49,93.63,224,40,224a8,8,0,0,1-8-8c0-53.63,36.51-63.38,38.06-63.77a8,8,0,0,1,3.88,15.53c-.9.25-22.42,6.54-25.56,39.86C81.7,204.48,88,183,88.26,182a8,8,0,0,1,15.51,4Zm93-67.4L192,123.31v58.33A15.91,15.91,0,0,1,187.32,193L153,227.3A15.91,15.91,0,0,1,141.7,232a16.11,16.11,0,0,1-5.1-.83,15.94,15.94,0,0,1-10.78-12.92l-5.37-38.49L76.24,135.55l-38.47-5.37A16,16,0,0,1,28.7,103L63,68.68A15.91,15.91,0,0,1,74.36,64h58.33l4.77-4.77c26.68-26.67,58.83-27.82,71.41-27.07a16,16,0,0,1,15,15C224.6,59.71,223.45,91.86,196.78,118.54ZM40,114.34l37.15,5.18L116.69,80H74.36ZM91.32,128,128,164.68l57.45-57.45a76.46,76.46,0,0,0,22.42-59.16,76.65,76.65,0,0,0-59.11,22.47ZM176,139.31l-39.53,39.53L141.67,216,176,181.64Z">
</path>
<style>
        path { fill: #000; }
        @media (prefers-color-scheme: dark) {
            path { fill: #000; }
        }
    </style>
</svg>